<?xml version="1.0" encoding="utf-8" standalone="no"?>
<!DOCTYPE svg PUBLIC "-//W3C//DTD SVG 1.1//EN"
  "http://www.w3.org/Graphics/SVG/1.1/DTD/svg11.dtd">
<svg xmlns:xlink="http://www.w3.org/1999/xlink" width="240.795312pt" height="179.821563pt" viewBox="0 0 240.795312 179.821563" xmlns="http://www.w3.org/2000/svg" version="1.1">
 <metadata>
  <rdf:RDF xmlns:dc="http://purl.org/dc/elements/1.1/" xmlns:cc="http://creativecommons.org/ns#" xmlns:rdf="http://www.w3.org/1999/02/22-rdf-syntax-ns#">
   <cc:Work>
    <dc:type rdf:resource="http://purl.org/dc/dcmitype/StillImage"/>
    <dc:date>2023-06-22T18:31:20.921151</dc:date>
    <dc:format>image/svg+xml</dc:format>
    <dc:creator>
     <cc:Agent>
      <dc:title>Matplotlib v3.7.1, https://matplotlib.org/</dc:title>
     </cc:Agent>
    </dc:creator>
   </cc:Work>
  </rdf:RDF>
 </metadata>
 <defs>
  <style type="text/css">*{stroke-linejoin: round; stroke-linecap: butt}</style>
 </defs>
 <g id="figure_1">
  <g id="patch_1">
   <path d="M 0 179.821563 
L 240.795312 179.821563 
L 240.795312 0 
L 0 0 
z
" style="fill: #ffffff"/>
  </g>
  <g id="axes_1">
   <g id="patch_2">
    <path d="M 17.595312 166.32 
L 240.795312 166.32 
L 240.795312 0 
L 17.595312 0 
z
" style="fill: #ffffff"/>
   </g>
   <g id="matplotlib.axis_1">
    <g id="xtick_1">
     <g id="line2d_1">
      <defs>
       <path id="m7a7072ee74" d="M 0 0 
L 0 -3.5 
" style="stroke: #ced0d1; stroke-width: 0.8"/>
      </defs>
      <g>
       <use xlink:href="#m7a7072ee74" x="23.726055" y="166.32" style="fill: #ced0d1; stroke: #ced0d1; stroke-width: 0.8"/>
      </g>
     </g>
     <g id="text_1">
      <!-- 100 B -->
      <g transform="translate(10.611211 177.418438) scale(0.1 -0.1)">
       <defs>
        <path id="OpenSans-31" d="M 2234 0 
L 1728 0 
L 1728 3256 
Q 1728 3663 1753 4025 
Q 1688 3959 1606 3887 
Q 1525 3816 863 3278 
L 588 3634 
L 1797 4569 
L 2234 4569 
L 2234 0 
z
" transform="scale(0.015625)"/>
        <path id="OpenSans-30" d="M 3341 2291 
Q 3341 1106 2967 521 
Q 2594 -63 1825 -63 
Q 1088 -63 703 535 
Q 319 1134 319 2291 
Q 319 3484 691 4062 
Q 1063 4641 1825 4641 
Q 2569 4641 2955 4037 
Q 3341 3434 3341 2291 
z
M 844 2291 
Q 844 1294 1078 839 
Q 1313 384 1825 384 
Q 2344 384 2576 845 
Q 2809 1306 2809 2291 
Q 2809 3275 2576 3733 
Q 2344 4191 1825 4191 
Q 1313 4191 1078 3739 
Q 844 3288 844 2291 
z
" transform="scale(0.015625)"/>
        <path id="OpenSans-20" transform="scale(0.015625)"/>
        <path id="OpenSans-42" d="M 628 4569 
L 1919 4569 
Q 2828 4569 3234 4297 
Q 3641 4025 3641 3438 
Q 3641 3031 3414 2767 
Q 3188 2503 2753 2425 
L 2753 2394 
Q 3794 2216 3794 1300 
Q 3794 688 3380 344 
Q 2966 0 2222 0 
L 628 0 
L 628 4569 
z
M 1159 2613 
L 2034 2613 
Q 2597 2613 2844 2789 
Q 3091 2966 3091 3384 
Q 3091 3769 2816 3939 
Q 2541 4109 1941 4109 
L 1159 4109 
L 1159 2613 
z
M 1159 2163 
L 1159 453 
L 2113 453 
Q 2666 453 2945 667 
Q 3225 881 3225 1338 
Q 3225 1763 2939 1963 
Q 2653 2163 2069 2163 
L 1159 2163 
z
" transform="scale(0.015625)"/>
       </defs>
       <use xlink:href="#OpenSans-31"/>
       <use xlink:href="#OpenSans-30" x="57.177734"/>
       <use xlink:href="#OpenSans-30" x="114.355469"/>
       <use xlink:href="#OpenSans-20" x="171.533203"/>
       <use xlink:href="#OpenSans-42" x="197.509766"/>
      </g>
     </g>
    </g>
    <g id="xtick_2">
     <g id="line2d_2">
      <g>
       <use xlink:href="#m7a7072ee74" x="61.173244" y="166.32" style="fill: #ced0d1; stroke: #ced0d1; stroke-width: 0.8"/>
      </g>
     </g>
     <g id="text_2">
      <!-- 1 KB -->
      <g transform="translate(50.706838 177.418438) scale(0.1 -0.1)">
       <defs>
        <path id="OpenSans-4b" d="M 3928 0 
L 3303 0 
L 1638 2216 
L 1159 1791 
L 1159 0 
L 628 0 
L 628 4569 
L 1159 4569 
L 1159 2303 
L 3231 4569 
L 3859 4569 
L 2022 2584 
L 3928 0 
z
" transform="scale(0.015625)"/>
       </defs>
       <use xlink:href="#OpenSans-31"/>
       <use xlink:href="#OpenSans-20" x="57.177734"/>
       <use xlink:href="#OpenSans-4b" x="83.154297"/>
       <use xlink:href="#OpenSans-42" x="144.53125"/>
      </g>
     </g>
    </g>
    <g id="xtick_3">
     <g id="line2d_3">
      <g>
       <use xlink:href="#m7a7072ee74" x="98.620434" y="166.32" style="fill: #ced0d1; stroke: #ced0d1; stroke-width: 0.8"/>
      </g>
     </g>
     <g id="text_3">
      <!-- 10 KB -->
      <g transform="translate(85.295434 177.418438) scale(0.1 -0.1)">
       <use xlink:href="#OpenSans-31"/>
       <use xlink:href="#OpenSans-30" x="57.177734"/>
       <use xlink:href="#OpenSans-20" x="114.355469"/>
       <use xlink:href="#OpenSans-4b" x="140.332031"/>
       <use xlink:href="#OpenSans-42" x="201.708984"/>
      </g>
     </g>
    </g>
    <g id="xtick_4">
     <g id="line2d_4">
      <g>
       <use xlink:href="#m7a7072ee74" x="136.067623" y="166.32" style="fill: #ced0d1; stroke: #ced0d1; stroke-width: 0.8"/>
      </g>
     </g>
     <g id="text_4">
      <!-- 100 KB -->
      <g transform="translate(119.88403 177.418438) scale(0.1 -0.1)">
       <use xlink:href="#OpenSans-31"/>
       <use xlink:href="#OpenSans-30" x="57.177734"/>
       <use xlink:href="#OpenSans-30" x="114.355469"/>
       <use xlink:href="#OpenSans-20" x="171.533203"/>
       <use xlink:href="#OpenSans-4b" x="197.509766"/>
       <use xlink:href="#OpenSans-42" x="258.886719"/>
      </g>
     </g>
    </g>
    <g id="xtick_5">
     <g id="line2d_5">
      <g>
       <use xlink:href="#m7a7072ee74" x="173.514813" y="166.32" style="fill: #ced0d1; stroke: #ced0d1; stroke-width: 0.8"/>
      </g>
     </g>
     <g id="text_5">
      <!-- 1 MB -->
      <g transform="translate(161.603094 177.418438) scale(0.1 -0.1)">
       <defs>
        <path id="OpenSans-4d" d="M 2650 0 
L 1100 4050 
L 1075 4050 
Q 1119 3569 1119 2906 
L 1119 0 
L 628 0 
L 628 4569 
L 1428 4569 
L 2875 800 
L 2900 800 
L 4359 4569 
L 5153 4569 
L 5153 0 
L 4622 0 
L 4622 2944 
Q 4622 3450 4666 4044 
L 4641 4044 
L 3078 0 
L 2650 0 
z
" transform="scale(0.015625)"/>
       </defs>
       <use xlink:href="#OpenSans-31"/>
       <use xlink:href="#OpenSans-20" x="57.177734"/>
       <use xlink:href="#OpenSans-4d" x="83.154297"/>
       <use xlink:href="#OpenSans-42" x="173.4375"/>
      </g>
     </g>
    </g>
    <g id="xtick_6">
     <g id="line2d_6">
      <g>
       <use xlink:href="#m7a7072ee74" x="210.962002" y="166.32" style="fill: #ced0d1; stroke: #ced0d1; stroke-width: 0.8"/>
      </g>
     </g>
     <g id="text_6">
      <!-- 10 MB -->
      <g transform="translate(196.19169 177.418438) scale(0.1 -0.1)">
       <use xlink:href="#OpenSans-31"/>
       <use xlink:href="#OpenSans-30" x="57.177734"/>
       <use xlink:href="#OpenSans-20" x="114.355469"/>
       <use xlink:href="#OpenSans-4d" x="140.332031"/>
       <use xlink:href="#OpenSans-42" x="230.615234"/>
      </g>
     </g>
    </g>
   </g>
   <g id="matplotlib.axis_2">
    <g id="ytick_1">
     <g id="line2d_7">
      <defs>
       <path id="md5b8d1561b" d="M 0 0 
L 3.5 0 
" style="stroke: #ced0d1; stroke-width: 0.8"/>
      </defs>
      <g>
       <use xlink:href="#md5b8d1561b" x="17.595312" y="157.999616" style="fill: #ced0d1; stroke: #ced0d1; stroke-width: 0.8"/>
      </g>
     </g>
     <g id="text_7">
      <!-- 1.0 -->
      <g transform="translate(-0 161.798835) scale(0.1 -0.1)">
       <defs>
        <path id="OpenSans-2e" d="M 475 331 
Q 475 541 570 648 
Q 666 756 844 756 
Q 1025 756 1126 648 
Q 1228 541 1228 331 
Q 1228 128 1125 18 
Q 1022 -91 844 -91 
Q 684 -91 579 7 
Q 475 106 475 331 
z
" transform="scale(0.015625)"/>
       </defs>
       <use xlink:href="#OpenSans-31"/>
       <use xlink:href="#OpenSans-2e" x="57.177734"/>
       <use xlink:href="#OpenSans-30" x="83.789062"/>
      </g>
     </g>
    </g>
    <g id="ytick_2">
     <g id="line2d_8">
      <g>
       <use xlink:href="#md5b8d1561b" x="17.595312" y="124.021321" style="fill: #ced0d1; stroke: #ced0d1; stroke-width: 0.8"/>
      </g>
     </g>
     <g id="text_8">
      <!-- 1.2 -->
      <g transform="translate(-0 127.82054) scale(0.1 -0.1)">
       <defs>
        <path id="OpenSans-32" d="M 3316 0 
L 313 0 
L 313 447 
L 1516 1656 
Q 2066 2213 2241 2450 
Q 2416 2688 2503 2913 
Q 2591 3138 2591 3397 
Q 2591 3763 2369 3977 
Q 2147 4191 1753 4191 
Q 1469 4191 1214 4097 
Q 959 4003 647 3756 
L 372 4109 
Q 1003 4634 1747 4634 
Q 2391 4634 2756 4304 
Q 3122 3975 3122 3419 
Q 3122 2984 2878 2559 
Q 2634 2134 1966 1484 
L 966 506 
L 966 481 
L 3316 481 
L 3316 0 
z
" transform="scale(0.015625)"/>
       </defs>
       <use xlink:href="#OpenSans-31"/>
       <use xlink:href="#OpenSans-2e" x="57.177734"/>
       <use xlink:href="#OpenSans-32" x="83.789062"/>
      </g>
     </g>
    </g>
    <g id="ytick_3">
     <g id="line2d_9">
      <g>
       <use xlink:href="#md5b8d1561b" x="17.595312" y="90.043026" style="fill: #ced0d1; stroke: #ced0d1; stroke-width: 0.8"/>
      </g>
     </g>
     <g id="text_9">
      <!-- 1.4 -->
      <g transform="translate(-0 93.842244) scale(0.1 -0.1)">
       <defs>
        <path id="OpenSans-34" d="M 3531 1050 
L 2853 1050 
L 2853 0 
L 2356 0 
L 2356 1050 
L 134 1050 
L 134 1503 
L 2303 4594 
L 2853 4594 
L 2853 1522 
L 3531 1522 
L 3531 1050 
z
M 2356 1522 
L 2356 3041 
Q 2356 3488 2388 4050 
L 2363 4050 
Q 2213 3750 2081 3553 
L 653 1522 
L 2356 1522 
z
" transform="scale(0.015625)"/>
       </defs>
       <use xlink:href="#OpenSans-31"/>
       <use xlink:href="#OpenSans-2e" x="57.177734"/>
       <use xlink:href="#OpenSans-34" x="83.789062"/>
      </g>
     </g>
    </g>
    <g id="ytick_4">
     <g id="line2d_10">
      <g>
       <use xlink:href="#md5b8d1561b" x="17.595312" y="56.06473" style="fill: #ced0d1; stroke: #ced0d1; stroke-width: 0.8"/>
      </g>
     </g>
     <g id="text_10">
      <!-- 1.6 -->
      <g transform="translate(-0 59.863949) scale(0.1 -0.1)">
       <defs>
        <path id="OpenSans-36" d="M 366 1953 
Q 366 3300 889 3967 
Q 1413 4634 2438 4634 
Q 2791 4634 2994 4575 
L 2994 4128 
Q 2753 4206 2444 4206 
Q 1709 4206 1321 3748 
Q 934 3291 897 2309 
L 934 2309 
Q 1278 2847 2022 2847 
Q 2638 2847 2992 2475 
Q 3347 2103 3347 1466 
Q 3347 753 2958 345 
Q 2569 -63 1906 -63 
Q 1197 -63 781 470 
Q 366 1003 366 1953 
z
M 1900 378 
Q 2344 378 2589 658 
Q 2834 938 2834 1466 
Q 2834 1919 2606 2178 
Q 2378 2438 1925 2438 
Q 1644 2438 1409 2322 
Q 1175 2206 1036 2003 
Q 897 1800 897 1581 
Q 897 1259 1022 981 
Q 1147 703 1376 540 
Q 1606 378 1900 378 
z
" transform="scale(0.015625)"/>
       </defs>
       <use xlink:href="#OpenSans-31"/>
       <use xlink:href="#OpenSans-2e" x="57.177734"/>
       <use xlink:href="#OpenSans-36" x="83.789062"/>
      </g>
     </g>
    </g>
    <g id="ytick_5">
     <g id="line2d_11">
      <g>
       <use xlink:href="#md5b8d1561b" x="17.595312" y="22.086435" style="fill: #ced0d1; stroke: #ced0d1; stroke-width: 0.8"/>
      </g>
     </g>
     <g id="text_11">
      <!-- 1.8 -->
      <g transform="translate(-0 25.885654) scale(0.1 -0.1)">
       <defs>
        <path id="OpenSans-38" d="M 1825 4634 
Q 2450 4634 2815 4343 
Q 3181 4053 3181 3541 
Q 3181 3203 2972 2925 
Q 2763 2647 2303 2419 
Q 2859 2153 3093 1861 
Q 3328 1569 3328 1184 
Q 3328 616 2931 276 
Q 2534 -63 1844 -63 
Q 1113 -63 719 257 
Q 325 578 325 1166 
Q 325 1950 1281 2388 
Q 850 2631 662 2914 
Q 475 3197 475 3547 
Q 475 4044 842 4339 
Q 1209 4634 1825 4634 
z
M 838 1153 
Q 838 778 1098 568 
Q 1359 359 1831 359 
Q 2297 359 2556 578 
Q 2816 797 2816 1178 
Q 2816 1481 2572 1717 
Q 2328 1953 1722 2175 
Q 1256 1975 1047 1733 
Q 838 1491 838 1153 
z
M 1819 4213 
Q 1428 4213 1206 4025 
Q 984 3838 984 3525 
Q 984 3238 1168 3031 
Q 1353 2825 1850 2619 
Q 2297 2806 2483 3022 
Q 2669 3238 2669 3525 
Q 2669 3841 2442 4027 
Q 2216 4213 1819 4213 
z
" transform="scale(0.015625)"/>
       </defs>
       <use xlink:href="#OpenSans-31"/>
       <use xlink:href="#OpenSans-2e" x="57.177734"/>
       <use xlink:href="#OpenSans-38" x="83.789062"/>
      </g>
     </g>
    </g>
   </g>
   <g id="line2d_12">
    <path d="M 17.595312 157.999616 
L 240.795312 157.999616 
" clip-path="url(#p8d4c6cd138)" style="fill: none; stroke-dasharray: 2.775,1.2; stroke-dashoffset: 0; stroke: #ced0d1; stroke-width: 0.75"/>
   </g>
   <g id="line2d_13">
    <path d="M 27.740767 158.563665 
L 39.013494 158.76 
L 50.286222 158.103844 
L 61.558949 147.604526 
L 72.831676 134.587742 
L 84.104403 126.870736 
L 95.377131 122.735445 
L 106.649858 96.57805 
L 117.922585 37.968589 
L 129.195312 20.533434 
L 140.46804 22.990197 
L 151.740767 33.783661 
L 163.013494 34.173242 
L 174.286222 7.56 
L 185.558949 58.928236 
L 196.831676 106.88054 
L 208.104403 121.020083 
L 219.377131 126.154842 
L 230.649858 157.550643 
" clip-path="url(#p8d4c6cd138)" style="fill: none; stroke: #ff0000; stroke-width: 1.5; stroke-linecap: square"/>
   </g>
   <g id="patch_3">
    <path d="M 17.595312 166.32 
L 17.595312 0 
" style="fill: none; stroke: #ced0d1; stroke-width: 0.8; stroke-linejoin: miter; stroke-linecap: square"/>
   </g>
   <g id="patch_4">
    <path d="M 17.595312 166.32 
L 240.795312 166.32 
" style="fill: none; stroke: #ced0d1; stroke-width: 0.8; stroke-linejoin: miter; stroke-linecap: square"/>
   </g>
  </g>
 </g>
 <defs>
  <clipPath id="p8d4c6cd138">
   <rect x="17.595312" y="0" width="223.2" height="166.32"/>
  </clipPath>
 </defs>
</svg>
