<?xml version="1.0" encoding="utf-8" standalone="no"?>
<!DOCTYPE svg PUBLIC "-//W3C//DTD SVG 1.1//EN"
  "http://www.w3.org/Graphics/SVG/1.1/DTD/svg11.dtd">
<svg xmlns:xlink="http://www.w3.org/1999/xlink" width="232.417188pt" height="179.821563pt" viewBox="0 0 232.417188 179.821563" xmlns="http://www.w3.org/2000/svg" version="1.1">
 <metadata>
  <rdf:RDF xmlns:dc="http://purl.org/dc/elements/1.1/" xmlns:cc="http://creativecommons.org/ns#" xmlns:rdf="http://www.w3.org/1999/02/22-rdf-syntax-ns#">
   <cc:Work>
    <dc:type rdf:resource="http://purl.org/dc/dcmitype/StillImage"/>
    <dc:date>2023-06-22T18:31:21.133567</dc:date>
    <dc:format>image/svg+xml</dc:format>
    <dc:creator>
     <cc:Agent>
      <dc:title>Matplotlib v3.7.1, https://matplotlib.org/</dc:title>
     </cc:Agent>
    </dc:creator>
   </cc:Work>
  </rdf:RDF>
 </metadata>
 <defs>
  <style type="text/css">*{stroke-linejoin: round; stroke-linecap: butt}</style>
 </defs>
 <g id="figure_1">
  <g id="patch_1">
   <path d="M 0 179.821563 
L 232.417188 179.821563 
L 232.417188 0 
L 0 0 
z
" style="fill: #ffffff"/>
  </g>
  <g id="axes_1">
   <g id="patch_2">
    <path d="M 9.217188 166.32 
L 232.417187 166.32 
L 232.417187 0 
L 9.217188 0 
z
" style="fill: #ffffff"/>
   </g>
   <g id="matplotlib.axis_1">
    <g id="xtick_1">
     <g id="line2d_1">
      <defs>
       <path id="m4b2f3ac927" d="M 0 0 
L 0 -3.5 
" style="stroke: #ced0d1; stroke-width: 0.8"/>
      </defs>
      <g>
       <use xlink:href="#m4b2f3ac927" x="18.205529" y="166.32" style="fill: #ced0d1; stroke: #ced0d1; stroke-width: 0.8"/>
      </g>
     </g>
     <g id="text_1">
      <!-- 1 MB -->
      <g transform="translate(6.29381 177.418438) scale(0.1 -0.1)">
       <defs>
        <path id="OpenSans-31" d="M 2234 0 
L 1728 0 
L 1728 3256 
Q 1728 3663 1753 4025 
Q 1688 3959 1606 3887 
Q 1525 3816 863 3278 
L 588 3634 
L 1797 4569 
L 2234 4569 
L 2234 0 
z
" transform="scale(0.015625)"/>
        <path id="OpenSans-20" transform="scale(0.015625)"/>
        <path id="OpenSans-4d" d="M 2650 0 
L 1100 4050 
L 1075 4050 
Q 1119 3569 1119 2906 
L 1119 0 
L 628 0 
L 628 4569 
L 1428 4569 
L 2875 800 
L 2900 800 
L 4359 4569 
L 5153 4569 
L 5153 0 
L 4622 0 
L 4622 2944 
Q 4622 3450 4666 4044 
L 4641 4044 
L 3078 0 
L 2650 0 
z
" transform="scale(0.015625)"/>
        <path id="OpenSans-42" d="M 628 4569 
L 1919 4569 
Q 2828 4569 3234 4297 
Q 3641 4025 3641 3438 
Q 3641 3031 3414 2767 
Q 3188 2503 2753 2425 
L 2753 2394 
Q 3794 2216 3794 1300 
Q 3794 688 3380 344 
Q 2966 0 2222 0 
L 628 0 
L 628 4569 
z
M 1159 2613 
L 2034 2613 
Q 2597 2613 2844 2789 
Q 3091 2966 3091 3384 
Q 3091 3769 2816 3939 
Q 2541 4109 1941 4109 
L 1159 4109 
L 1159 2613 
z
M 1159 2163 
L 1159 453 
L 2113 453 
Q 2666 453 2945 667 
Q 3225 881 3225 1338 
Q 3225 1763 2939 1963 
Q 2653 2163 2069 2163 
L 1159 2163 
z
" transform="scale(0.015625)"/>
       </defs>
       <use xlink:href="#OpenSans-31"/>
       <use xlink:href="#OpenSans-20" x="57.177734"/>
       <use xlink:href="#OpenSans-4d" x="83.154297"/>
       <use xlink:href="#OpenSans-42" x="173.4375"/>
      </g>
     </g>
    </g>
    <g id="xtick_2">
     <g id="line2d_2">
      <g>
       <use xlink:href="#m4b2f3ac927" x="74.376313" y="166.32" style="fill: #ced0d1; stroke: #ced0d1; stroke-width: 0.8"/>
      </g>
     </g>
     <g id="text_2">
      <!-- 10 MB -->
      <g transform="translate(59.606 177.418438) scale(0.1 -0.1)">
       <defs>
        <path id="OpenSans-30" d="M 3341 2291 
Q 3341 1106 2967 521 
Q 2594 -63 1825 -63 
Q 1088 -63 703 535 
Q 319 1134 319 2291 
Q 319 3484 691 4062 
Q 1063 4641 1825 4641 
Q 2569 4641 2955 4037 
Q 3341 3434 3341 2291 
z
M 844 2291 
Q 844 1294 1078 839 
Q 1313 384 1825 384 
Q 2344 384 2576 845 
Q 2809 1306 2809 2291 
Q 2809 3275 2576 3733 
Q 2344 4191 1825 4191 
Q 1313 4191 1078 3739 
Q 844 3288 844 2291 
z
" transform="scale(0.015625)"/>
       </defs>
       <use xlink:href="#OpenSans-31"/>
       <use xlink:href="#OpenSans-30" x="57.177734"/>
       <use xlink:href="#OpenSans-20" x="114.355469"/>
       <use xlink:href="#OpenSans-4d" x="140.332031"/>
       <use xlink:href="#OpenSans-42" x="230.615234"/>
      </g>
     </g>
    </g>
    <g id="xtick_3">
     <g id="line2d_3">
      <g>
       <use xlink:href="#m4b2f3ac927" x="130.547097" y="166.32" style="fill: #ced0d1; stroke: #ced0d1; stroke-width: 0.8"/>
      </g>
     </g>
     <g id="text_3">
      <!-- 100 MB -->
      <g transform="translate(112.918191 177.418438) scale(0.1 -0.1)">
       <use xlink:href="#OpenSans-31"/>
       <use xlink:href="#OpenSans-30" x="57.177734"/>
       <use xlink:href="#OpenSans-30" x="114.355469"/>
       <use xlink:href="#OpenSans-20" x="171.533203"/>
       <use xlink:href="#OpenSans-4d" x="197.509766"/>
       <use xlink:href="#OpenSans-42" x="287.792969"/>
      </g>
     </g>
    </g>
    <g id="xtick_4">
     <g id="line2d_4">
      <g>
       <use xlink:href="#m4b2f3ac927" x="186.717881" y="166.32" style="fill: #ced0d1; stroke: #ced0d1; stroke-width: 0.8"/>
      </g>
     </g>
     <g id="text_4">
      <!-- 1 GB -->
      <g transform="translate(175.680381 177.418438) scale(0.1 -0.1)">
       <defs>
        <path id="OpenSans-47" d="M 2638 2394 
L 4191 2394 
L 4191 172 
Q 3828 56 3453 -3 
Q 3078 -63 2584 -63 
Q 1547 -63 969 554 
Q 391 1172 391 2284 
Q 391 2997 677 3533 
Q 963 4069 1500 4351 
Q 2038 4634 2759 4634 
Q 3491 4634 4122 4366 
L 3916 3897 
Q 3297 4159 2725 4159 
Q 1891 4159 1422 3662 
Q 953 3166 953 2284 
Q 953 1359 1404 881 
Q 1856 403 2731 403 
Q 3206 403 3659 513 
L 3659 1919 
L 2638 1919 
L 2638 2394 
z
" transform="scale(0.015625)"/>
       </defs>
       <use xlink:href="#OpenSans-31"/>
       <use xlink:href="#OpenSans-20" x="57.177734"/>
       <use xlink:href="#OpenSans-47" x="83.154297"/>
       <use xlink:href="#OpenSans-42" x="155.957031"/>
      </g>
     </g>
    </g>
   </g>
   <g id="matplotlib.axis_2">
    <g id="ytick_1">
     <g id="line2d_5">
      <defs>
       <path id="m091826846b" d="M 0 0 
L 3.5 0 
" style="stroke: #ced0d1; stroke-width: 0.8"/>
      </defs>
      <g>
       <use xlink:href="#m091826846b" x="9.217188" y="158.76" style="fill: #ced0d1; stroke: #ced0d1; stroke-width: 0.8"/>
      </g>
     </g>
     <g id="text_5">
      <!-- 1 -->
      <g transform="translate(0 162.559219) scale(0.1 -0.1)">
       <use xlink:href="#OpenSans-31"/>
      </g>
     </g>
    </g>
    <g id="ytick_2">
     <g id="line2d_6">
      <g>
       <use xlink:href="#m091826846b" x="9.217188" y="122.088393" style="fill: #ced0d1; stroke: #ced0d1; stroke-width: 0.8"/>
      </g>
     </g>
     <g id="text_6">
      <!-- 2 -->
      <g transform="translate(0 125.887612) scale(0.1 -0.1)">
       <defs>
        <path id="OpenSans-32" d="M 3316 0 
L 313 0 
L 313 447 
L 1516 1656 
Q 2066 2213 2241 2450 
Q 2416 2688 2503 2913 
Q 2591 3138 2591 3397 
Q 2591 3763 2369 3977 
Q 2147 4191 1753 4191 
Q 1469 4191 1214 4097 
Q 959 4003 647 3756 
L 372 4109 
Q 1003 4634 1747 4634 
Q 2391 4634 2756 4304 
Q 3122 3975 3122 3419 
Q 3122 2984 2878 2559 
Q 2634 2134 1966 1484 
L 966 506 
L 966 481 
L 3316 481 
L 3316 0 
z
" transform="scale(0.015625)"/>
       </defs>
       <use xlink:href="#OpenSans-32"/>
      </g>
     </g>
    </g>
    <g id="ytick_3">
     <g id="line2d_7">
      <g>
       <use xlink:href="#m091826846b" x="9.217188" y="85.416787" style="fill: #ced0d1; stroke: #ced0d1; stroke-width: 0.8"/>
      </g>
     </g>
     <g id="text_7">
      <!-- 3 -->
      <g transform="translate(0 89.216006) scale(0.1 -0.1)">
       <defs>
        <path id="OpenSans-33" d="M 3144 3494 
Q 3144 3056 2898 2778 
Q 2653 2500 2203 2406 
L 2203 2381 
Q 2753 2313 3018 2031 
Q 3284 1750 3284 1294 
Q 3284 641 2831 289 
Q 2378 -63 1544 -63 
Q 1181 -63 879 -8 
Q 578 47 294 184 
L 294 678 
Q 591 531 927 454 
Q 1263 378 1563 378 
Q 2747 378 2747 1306 
Q 2747 2138 1441 2138 
L 991 2138 
L 991 2584 
L 1447 2584 
Q 1981 2584 2293 2820 
Q 2606 3056 2606 3475 
Q 2606 3809 2376 4000 
Q 2147 4191 1753 4191 
Q 1453 4191 1187 4109 
Q 922 4028 581 3809 
L 319 4159 
Q 600 4381 967 4507 
Q 1334 4634 1741 4634 
Q 2406 4634 2775 4329 
Q 3144 4025 3144 3494 
z
" transform="scale(0.015625)"/>
       </defs>
       <use xlink:href="#OpenSans-33"/>
      </g>
     </g>
    </g>
    <g id="ytick_4">
     <g id="line2d_8">
      <g>
       <use xlink:href="#m091826846b" x="9.217188" y="48.74518" style="fill: #ced0d1; stroke: #ced0d1; stroke-width: 0.8"/>
      </g>
     </g>
     <g id="text_8">
      <!-- 4 -->
      <g transform="translate(0 52.544399) scale(0.1 -0.1)">
       <defs>
        <path id="OpenSans-34" d="M 3531 1050 
L 2853 1050 
L 2853 0 
L 2356 0 
L 2356 1050 
L 134 1050 
L 134 1503 
L 2303 4594 
L 2853 4594 
L 2853 1522 
L 3531 1522 
L 3531 1050 
z
M 2356 1522 
L 2356 3041 
Q 2356 3488 2388 4050 
L 2363 4050 
Q 2213 3750 2081 3553 
L 653 1522 
L 2356 1522 
z
" transform="scale(0.015625)"/>
       </defs>
       <use xlink:href="#OpenSans-34"/>
      </g>
     </g>
    </g>
    <g id="ytick_5">
     <g id="line2d_9">
      <g>
       <use xlink:href="#m091826846b" x="9.217188" y="12.073574" style="fill: #ced0d1; stroke: #ced0d1; stroke-width: 0.8"/>
      </g>
     </g>
     <g id="text_9">
      <!-- 5 -->
      <g transform="translate(0 15.872792) scale(0.1 -0.1)">
       <defs>
        <path id="OpenSans-35" d="M 1741 2791 
Q 2463 2791 2877 2433 
Q 3291 2075 3291 1453 
Q 3291 744 2839 340 
Q 2388 -63 1594 -63 
Q 822 -63 416 184 
L 416 684 
Q 634 544 959 464 
Q 1284 384 1600 384 
Q 2150 384 2454 643 
Q 2759 903 2759 1394 
Q 2759 2350 1588 2350 
Q 1291 2350 794 2259 
L 525 2431 
L 697 4569 
L 2969 4569 
L 2969 4091 
L 1141 4091 
L 1025 2719 
Q 1384 2791 1741 2791 
z
" transform="scale(0.015625)"/>
       </defs>
       <use xlink:href="#OpenSans-35"/>
      </g>
     </g>
    </g>
   </g>
   <g id="line2d_10">
    <path d="M 9.217188 158.76 
L 232.417187 158.76 
" clip-path="url(#p4cc35c5073)" style="fill: none; stroke-dasharray: 2.775,1.2; stroke-dashoffset: 0; stroke: #ced0d1; stroke-width: 0.75"/>
   </g>
   <g id="line2d_11">
    <path d="M 19.362642 73.45198 
L 36.271733 76.919794 
L 53.180824 44.747471 
L 70.089915 7.56 
L 86.999006 49.34784 
L 103.908097 147.883625 
L 120.817187 135.496893 
L 137.726278 140.276507 
L 154.635369 146.430316 
L 171.54446 145.572335 
L 188.453551 149.985741 
L 205.362642 152.406308 
L 222.271733 153.211154 
" clip-path="url(#p4cc35c5073)" style="fill: none; stroke: #ff0000; stroke-width: 1.5; stroke-linecap: square"/>
   </g>
   <g id="patch_3">
    <path d="M 9.217188 166.32 
L 9.217188 0 
" style="fill: none; stroke: #ced0d1; stroke-width: 0.8; stroke-linejoin: miter; stroke-linecap: square"/>
   </g>
   <g id="patch_4">
    <path d="M 9.217188 166.32 
L 232.417188 166.32 
" style="fill: none; stroke: #ced0d1; stroke-width: 0.8; stroke-linejoin: miter; stroke-linecap: square"/>
   </g>
  </g>
 </g>
 <defs>
  <clipPath id="p4cc35c5073">
   <rect x="9.217188" y="0" width="223.2" height="166.32"/>
  </clipPath>
 </defs>
</svg>
